<svg xmlns="http://www.w3.org/2000/svg" viewBox="0 0 64 64" width="64" height="64">
  <rect width="64" height="64" fill="#000000"/>
  <rect x="4"  y="4"  width="8" height="8" rx="1" fill="#ffffff" opacity="1"/>
  <rect x="4"  y="14" width="8" height="8" rx="1" fill="#00ff41" opacity="0.85"/>
  <rect x="4"  y="24" width="8" height="8" rx="1" fill="#00ff41" opacity="0.55"/>
  <rect x="4"  y="34" width="8" height="8" rx="1" fill="#00ff41" opacity="0.25"/>
  <rect x="14" y="34" width="8" height="8" rx="1" fill="#ffffff" opacity="1"/>
  <rect x="14" y="44" width="8" height="8" rx="1" fill="#00ff41" opacity="0.85"/>
  <rect x="14" y="54" width="8" height="8" rx="1" fill="#00ff41" opacity="0.45"/>
  <rect x="24" y="14" width="8" height="8" rx="1" fill="#ffffff" opacity="1"/>
  <rect x="24" y="24" width="8" height="8" rx="1" fill="#00ff41" opacity="0.85"/>
  <rect x="24" y="34" width="8" height="8" rx="1" fill="#00ff41" opacity="0.5"/>
  <rect x="24" y="44" width="8" height="8" rx="1" fill="#00ff41" opacity="0.2"/>
  <rect x="34" y="44" width="8" height="8" rx="1" fill="#ffffff" opacity="1"/>
  <rect x="34" y="54" width="8" height="8" rx="1" fill="#00ff41" opacity="0.7"/>
  <rect x="44" y="4"  width="8" height="8" rx="1" fill="#ffffff" opacity="1"/>
  <rect x="44" y="14" width="8" height="8" rx="1" fill="#00ff41" opacity="0.85"/>
  <rect x="44" y="24" width="8" height="8" rx="1" fill="#00ff41" opacity="0.55"/>
  <rect x="44" y="34" width="8" height="8" rx="1" fill="#00ff41" opacity="0.25"/>
  <rect x="54" y="24" width="8" height="8" rx="1" fill="#ffffff" opacity="1"/>
  <rect x="54" y="34" width="8" height="8" rx="1" fill="#00ff41" opacity="0.85"/>
  <rect x="54" y="44" width="8" height="8" rx="1" fill="#00ff41" opacity="0.5"/>
  <rect x="54" y="54" width="8" height="8" rx="1" fill="#00ff41" opacity="0.2"/>
</svg>
